<svg height="85.333336" viewBox="0 0 85.333336 85.333336" width="85.333336" xmlns="http://www.w3.org/2000/svg"><g transform="matrix(.13333333 0 0 -.13333333 0 85.333333)"><path d="m640 320c0-176.73-143.27-320-320-320s-320 143.27-320 320 143.27 320 320 320 320-143.27 320-320" fill="#e1e3cc"/><path d="m320 80c-121.504 0-220 98.496-220 220 0 3.352.074 6.684.223 10 5.23-116.859 101.625-210 219.777-210s214.547 93.141 219.777 210c.149-3.316.223-6.648.223-10 0-121.504-98.496-220-220-220m179.727 230c-5.207 94.617-83.832 170-179.727 170s-174.52-75.383-179.727-170c-.179 3.313-.273 6.645-.273 10 0 99.254 80.746 180 180 180s180-80.746 180-180c0-3.355-.094-6.687-.273-10" fill="#b7b7a7"/><path d="m320 540c-121.504 0-220-98.496-220-220s98.496-220 220-220 220 98.496 220 220-98.496 220-220 220m0-40c99.254 0 180-80.746 180-180s-80.746-180-180-180-180 80.746-180 180 80.746 180 180 180" fill="#c84755"/><path d="m400 200c-5.117 0-10.234 1.953-14.141 5.859l-85.859 85.856v88.285c0 11.047 8.953 20 20 20s20-8.953 20-20v-71.715l74.141-74.144c7.812-7.809 7.812-20.473 0-28.282-3.907-3.906-9.024-5.859-14.141-5.859" fill="#b7b7a7"/><path d="m400 220c-5.117 0-10.234 1.953-14.141 5.859l-85.859 85.856v88.285c0 11.047 8.953 20 20 20s20-8.953 20-20v-71.715l74.141-74.144c7.812-7.809 7.812-20.473 0-28.282-3.907-3.906-9.024-5.859-14.141-5.859" fill="#495672"/></g></svg>